<?xml version="1.0" standalone="no"?>
<svg version="1.0" xmlns="http://www.w3.org/2000/svg"
 width="522.000000pt" height="354.000000pt" viewBox="0 0 522.000000 354.000000"
 preserveAspectRatio="xMidYMid meet">
<g transform="translate(0.000000,354.000000) scale(0.100000,-0.100000)"
>
<path d="M722 2757 l-722 -722 0 -288 0 -287 720 0 720 0 0 -360 0 -360 360 0
360 0 0 650 0 650 -717 0 -718 0 720 720 720 720 -360 0 -360 0 -723 -723z"/>
<path d="M2470 3118 l0 -363 360 360 360 360 0 -355 0 -355 -360 -360 -360
-360 0 -362 0 -363 720 0 720 0 0 362 0 363 -360 -360 -360 -360 0 360 0 360
360 360 360 360 0 357 0 358 -720 0 -720 0 0 -362z"/>
<path d="M2470 385 l0 -355 30 0 30 0 0 355 0 355 -30 0 -30 0 0 -355z"/>
<path d="M2790 597 c0 -2 24 -47 53 -100 52 -94 53 -97 46 -154 -4 -32 -8 -73
-8 -90 -1 -32 0 -33 42 -33 l44 0 11 91 11 91 76 93 c41 52 75 97 75 100 0 3
-24 5 -53 5 -53 0 -53 0 -94 -55 l-41 -56 -31 56 -31 55 -50 0 c-28 0 -50 -2
-50 -3z"/>
<path d="M3185 588 c-2 -7 -11 -76 -20 -153 -9 -77 -19 -157 -22 -178 l-6 -38
109 3 109 3 3 38 3 37 -60 0 c-58 0 -61 1 -61 24 0 49 8 56 70 56 l58 0 4 35
c2 20 2 38 -1 40 -2 3 -29 5 -58 5 l-54 0 3 33 c3 32 3 32 66 35 40 2 62 7 62
15 0 7 3 22 6 35 6 22 5 22 -100 22 -77 0 -108 -4 -111 -12z"/>
<path d="M3470 598 c0 -2 -9 -75 -20 -163 -28 -227 -29 -217 22 -213 l43 3 10
70 10 70 44 -73 43 -72 49 0 c27 0 49 3 49 8 0 4 -20 38 -44 77 l-44 69 28 12
c76 32 79 168 5 202 -21 10 -195 18 -195 10z m148 -80 c30 -30 -6 -88 -54 -88
-22 0 -25 3 -20 23 3 12 6 34 6 50 0 23 4 27 28 27 15 0 33 -5 40 -12z"/>
<path d="M3796 453 c-9 -82 -20 -167 -23 -191 l-6 -43 109 3 109 3 3 38 3 37
-60 0 c-58 0 -61 1 -61 24 0 49 8 56 71 56 l59 0 0 40 0 40 -56 0 -55 0 3 33
c3 32 3 32 66 35 53 3 62 6 62 22 0 10 3 25 6 34 5 14 -8 16 -103 16 l-109 0
-18 -147z"/>
<path d="M4075 553 c8 -27 34 -112 57 -190 l42 -143 32 0 c30 0 34 6 130 182
54 100 101 185 102 190 2 4 -19 8 -47 8 l-51 0 -58 -117 c-32 -64 -61 -112
-64 -107 -3 5 -18 57 -33 117 l-28 107 -48 0 -48 0 14 -47z"/>
<path d="M4477 416 c-53 -101 -97 -186 -97 -190 0 -3 20 -6 45 -6 42 0 48 3
66 35 21 35 22 35 90 35 l68 0 9 -32 c8 -31 11 -33 55 -36 26 -2 47 -1 47 2 0
6 -85 322 -96 359 -4 13 -16 17 -48 17 l-42 0 -97 -184z m153 -43 c0 -8 -15
-13 -40 -13 -22 0 -40 5 -40 10 0 6 12 34 27 63 l26 52 13 -50 c8 -27 14 -56
14 -62z"/>
<path d="M4826 453 c-9 -82 -20 -167 -23 -190 l-6 -43 47 0 c25 0 46 4 46 9 0
12 19 156 26 199 5 34 6 33 91 -87 84 -118 87 -121 124 -121 43 0 38 -16 64
200 8 69 17 137 20 153 4 26 3 27 -41 27 -27 0 -46 -5 -49 -12 -2 -7 -9 -59
-15 -115 -7 -57 -16 -101 -20 -98 -5 3 -43 55 -85 115 l-78 110 -41 0 -42 0
-18 -147z"/>
</g>
</svg>
